<svg width="116" height="24" viewBox="0 0 116 24" fill="none" xmlns="http://www.w3.org/2000/svg">
<path fill-rule="evenodd" clip-rule="evenodd" d="M6.81937 11.1053C5.33628 11.8305 3.46044 12.3831 0.674011 12.3831V23.1544C5.05915 23.1544 8.56199 22.2459 11.5611 20.7795C14.3645 19.4087 16.568 17.6121 18.2855 16.2118C18.3327 16.1733 18.3795 16.1351 18.426 16.0973C20.2745 14.5909 21.6131 13.5267 23.2149 12.7435C24.698 12.0183 26.5739 11.4657 29.3603 11.4657C32.1467 11.4657 34.0226 12.0183 35.5056 12.7435C37.1074 13.5267 38.4461 14.5909 40.2946 16.0973C40.341 16.1351 40.3879 16.1733 40.435 16.2118C42.1525 17.6121 44.356 19.4087 47.1594 20.7795C50.1586 22.2459 53.6614 23.1544 58.0466 23.1544C62.4317 23.1544 65.9345 22.2459 68.9337 20.7795C71.7371 19.4087 73.9406 17.6121 75.6581 16.2118C75.7053 16.1733 75.7521 16.1351 75.7985 16.0973C77.647 14.5909 78.9857 13.5267 80.5875 12.7435C82.0706 12.0183 83.9464 11.4657 86.7328 11.4657C89.5193 11.4657 91.3951 12.0183 92.8782 12.7435C94.48 13.5267 95.8186 14.5909 97.6671 16.0973L97.8075 16.2117C99.525 17.6121 101.729 19.4087 104.532 20.7795C107.531 22.2459 111.034 23.1544 115.419 23.1544V12.3831C112.633 12.3831 110.757 11.8305 109.274 11.1053C107.672 10.3221 106.333 9.25793 104.485 7.75154L104.344 7.63702C102.627 6.2367 100.423 4.44007 97.62 3.06933C94.6208 1.60287 91.118 0.694439 86.7328 0.694439C82.3477 0.694439 78.8448 1.60287 75.8457 3.06933C73.0423 4.44007 70.8388 6.23669 69.1213 7.637C69.0741 7.67549 69.0273 7.71367 68.9808 7.75154C67.1324 9.25793 65.7937 10.3221 64.1919 11.1053C62.7088 11.8305 60.833 12.3831 58.0466 12.3831C55.2601 12.3831 53.3843 11.8305 51.9012 11.1053C50.2994 10.3221 48.9608 9.25793 47.1123 7.75154C47.0658 7.71367 47.019 7.67548 46.9718 7.637C45.2543 6.23669 43.0508 4.44007 40.2474 3.06933C37.2483 1.60287 33.7454 0.694439 29.3603 0.694439C24.9751 0.694439 21.4723 1.60287 18.4732 3.06933C15.6698 4.44007 13.4662 6.2367 11.7488 7.63702C11.7016 7.6755 11.6548 7.71368 11.6083 7.75154C9.75981 9.25793 8.42116 10.3221 6.81937 11.1053Z" fill="#F15B5B"/>
</svg>
