<svg width="101" height="27" viewBox="0 0 101 27" fill="none" xmlns="http://www.w3.org/2000/svg">
<g filter="url(#filter0_d)">
<path fill-rule="evenodd" clip-rule="evenodd" d="M10.0365 10.0038C8.80685 9.40539 7.25161 8.94931 4.94141 8.94931V0.0604248C8.57709 0.0604248 11.4813 0.810097 13.9678 2.02028C16.2921 3.15148 18.119 4.63413 19.5429 5.78973C19.5821 5.82148 19.6209 5.85299 19.6594 5.88424C21.192 7.12738 22.3018 8.00556 23.6299 8.65191C24.8595 9.25034 26.4147 9.70642 28.7249 9.70642C31.0351 9.70642 32.5904 9.25034 33.82 8.65191C35.148 8.00556 36.2579 7.12738 37.7905 5.88424C37.829 5.853 37.8678 5.82149 37.9069 5.78974C39.3309 4.63414 41.1578 3.15148 43.4821 2.02028C45.9686 0.810097 48.8728 0.0604248 52.5085 0.0604248C56.1441 0.0604248 59.0483 0.810097 61.5349 2.02028C63.8592 3.15148 65.6861 4.63414 67.11 5.78974C67.1491 5.82149 67.188 5.853 67.2265 5.88424C68.759 7.12738 69.8689 8.00556 71.1969 8.65191C72.4265 9.25034 73.9818 9.70642 76.292 9.70642C78.6022 9.70642 80.1574 9.25034 81.387 8.65191C82.7151 8.00556 83.8249 7.12738 85.3575 5.88424L85.4739 5.78977C86.8979 4.63416 88.7248 3.15149 91.0491 2.02028C93.5357 0.810097 96.4399 0.0604248 100.076 0.0604248V8.94931C97.7653 8.94931 96.2101 9.40539 94.9805 10.0038C93.6524 10.6502 92.5426 11.5284 91.01 12.7715L90.8935 12.866C89.4696 14.0216 87.6427 15.5043 85.3184 16.6355C82.8318 17.8456 79.9277 18.5953 76.292 18.5953C72.6563 18.5953 69.7521 17.8456 67.2656 16.6355C64.9413 15.5043 63.1144 14.0216 61.6905 12.866C61.6513 12.8343 61.6125 12.8027 61.574 12.7715C60.0414 11.5284 58.9316 10.6502 57.6035 10.0038C56.3739 9.40539 54.8187 8.94931 52.5085 8.94931C50.1983 8.94931 48.643 9.40539 47.4134 10.0038C46.0854 10.6502 44.9755 11.5284 43.443 12.7715C43.4044 12.8027 43.3656 12.8343 43.3265 12.866C41.9025 14.0216 40.0756 15.5043 37.7514 16.6355C35.2648 17.8456 32.3606 18.5953 28.7249 18.5953C25.0893 18.5953 22.1851 17.8456 19.6985 16.6355C17.3743 15.5043 15.5473 14.0216 14.1234 12.866C14.0843 12.8342 14.0454 12.8027 14.0069 12.7715C12.4744 11.5284 11.3645 10.6502 10.0365 10.0038Z" fill="#F15B5B"/>
</g>
<defs>
<filter id="filter0_d" x="0.941406" y="0.0604248" width="103.134" height="26.5349" filterUnits="userSpaceOnUse" color-interpolation-filters="sRGB">
<feFlood flood-opacity="0" result="BackgroundImageFix"/>
<feColorMatrix in="SourceAlpha" type="matrix" values="0 0 0 0 0 0 0 0 0 0 0 0 0 0 0 0 0 0 127 0"/>
<feOffset dy="4"/>
<feGaussianBlur stdDeviation="2"/>
<feColorMatrix type="matrix" values="0 0 0 0 0 0 0 0 0 0 0 0 0 0 0 0 0 0 0.25 0"/>
<feBlend mode="normal" in2="BackgroundImageFix" result="effect1_dropShadow"/>
<feBlend mode="normal" in="SourceGraphic" in2="effect1_dropShadow" result="shape"/>
</filter>
</defs>
</svg>
