<svg width="96" height="19" viewBox="0 0 96 19" fill="none" xmlns="http://www.w3.org/2000/svg">
<path fill-rule="evenodd" clip-rule="evenodd" d="M5.15365 8.7762C3.92404 9.37464 2.3688 9.83072 0.0585938 9.83072V18.7196C3.69427 18.7196 6.59844 17.9699 9.08501 16.7597C11.4093 15.6286 13.2362 14.1459 14.6601 12.9903C14.6993 12.9585 14.7381 12.927 14.7766 12.8958C16.3092 11.6526 17.419 10.7745 18.7471 10.1281C19.9767 9.52969 21.5319 9.07361 23.8421 9.07361C26.1523 9.07361 27.7076 9.52969 28.9372 10.1281C30.2652 10.7745 31.3751 11.6526 32.9076 12.8958C32.9462 12.927 32.985 12.9585 33.0241 12.9903C34.448 14.1459 36.275 15.6285 38.5992 16.7597C41.0858 17.9699 43.99 18.7196 47.6257 18.7196C51.2613 18.7196 54.1655 17.9699 56.6521 16.7597C58.9763 15.6285 60.8033 14.1459 62.2272 12.9903C62.2663 12.9585 62.3051 12.927 62.3437 12.8958C63.8762 11.6526 64.9861 10.7745 66.3141 10.1281C67.5437 9.52969 69.099 9.07361 71.4092 9.07361C73.7194 9.07361 75.2746 9.52969 76.5042 10.1281C77.8323 10.7745 78.9421 11.6526 80.4747 12.8958L80.5911 12.9903C82.0151 14.1459 83.842 15.6285 86.1663 16.7597C88.6529 17.9699 91.557 18.7196 95.1927 18.7196V9.83072C92.8825 9.83072 91.3273 9.37464 90.0977 8.7762C88.7696 8.12986 87.6598 7.25168 86.1272 6.00854L86.0107 5.91403C84.5868 4.75843 82.7599 3.27578 80.4356 2.14458C77.949 0.934391 75.0449 0.184719 71.4092 0.184719C67.7735 0.184719 64.8693 0.934391 62.3828 2.14458C60.0585 3.27577 58.2316 4.75842 56.8077 5.91402C56.7685 5.94578 56.7297 5.97729 56.6912 6.00854C55.1586 7.25168 54.0487 8.12986 52.7207 8.7762C51.4911 9.37464 49.9359 9.83072 47.6257 9.83072C45.3155 9.83072 43.7602 9.37464 42.5306 8.7762C41.2026 8.12986 40.0927 7.25168 38.5601 6.00854C38.5216 5.97729 38.4828 5.94578 38.4437 5.91402C37.0197 4.75842 35.1928 3.27577 32.8685 2.14458C30.382 0.934391 27.4778 0.184719 23.8421 0.184719C20.2064 0.184719 17.3023 0.934391 14.8157 2.14458C12.4914 3.27577 10.6645 4.75843 9.24058 5.91403C9.20145 5.94578 9.16263 5.97729 9.12411 6.00854C7.59154 7.25168 6.48169 8.12986 5.15365 8.7762Z" fill="#F15B5B"/>
</svg>
