<svg width="116" height="24" viewBox="0 0 116 24" fill="none" xmlns="http://www.w3.org/2000/svg">
<path fill-rule="evenodd" clip-rule="evenodd" d="M6.88803 12.8752C5.40495 12.1501 3.5291 11.5974 0.742676 11.5974V0.826172C5.12782 0.826172 8.63065 1.7346 11.6298 3.20106C14.4332 4.5718 16.6367 6.36842 18.3542 7.76874C18.4014 7.80722 18.4482 7.8454 18.4947 7.88327C20.3432 9.38966 21.6818 10.4538 23.2836 11.237C24.7667 11.9622 26.6425 12.5148 29.4289 12.5148C32.2154 12.5148 34.0912 11.9622 35.5743 11.237C37.1761 10.4538 38.5147 9.38966 40.3632 7.88327C40.4097 7.84541 40.4565 7.80723 40.5037 7.76875C42.2212 6.36843 44.4247 4.57181 47.2281 3.20106C50.2272 1.7346 53.7301 0.826172 58.1152 0.826172C62.5004 0.826172 66.0032 1.7346 69.0023 3.20106C71.8057 4.57181 74.0093 6.36843 75.7267 7.76875C75.7739 7.80723 75.8207 7.84541 75.8672 7.88327C77.7157 9.38966 79.0543 10.4538 80.6561 11.237C82.1392 11.9622 84.0151 12.5148 86.8015 12.5148C89.5879 12.5148 91.4638 11.9622 92.9468 11.237C94.5486 10.4538 95.8873 9.38966 97.7358 7.88327L97.8762 7.76879C99.5937 6.36846 101.797 4.57182 104.601 3.20106C107.6 1.7346 111.103 0.826172 115.488 0.826172V11.5974C112.701 11.5974 110.826 12.1501 109.342 12.8752C107.741 13.6585 106.402 14.7226 104.553 16.229L104.413 16.3435C102.696 17.7438 100.492 19.5405 97.6886 20.9112C94.6895 22.3777 91.1866 23.2861 86.8015 23.2861C82.4164 23.2861 78.9135 22.3777 75.9144 20.9112C73.111 19.5405 70.9075 17.7438 69.19 16.3435C69.1428 16.305 69.096 16.2669 69.0495 16.229C67.201 14.7226 65.8624 13.6585 64.2606 12.8752C62.7775 12.1501 60.9016 11.5974 58.1152 11.5974C55.3288 11.5974 53.453 12.1501 51.9699 12.8752C50.3681 13.6585 49.0294 14.7226 47.1809 16.229C47.1345 16.2669 47.0876 16.305 47.0404 16.3435C45.323 17.7438 43.1195 19.5405 40.3161 20.9112C37.3169 22.3777 33.8141 23.2861 29.4289 23.2861C25.0438 23.2861 21.541 22.3777 18.5418 20.9112C15.7384 19.5405 13.5349 17.7438 11.8174 16.3435C11.7702 16.305 11.7234 16.2669 11.677 16.229C9.82847 14.7226 8.48983 13.6585 6.88803 12.8752Z" fill="#F15B5B"/>
</svg>
